<svg xmlns="http://www.w3.org/2000/svg" width="2012.7852044389942" height="2238.1230292819537" viewBox="132.1579360987094 -728.4776815210373 2012.7852044389942 2238.1230292819537" style="background-color:rgba(34, 34, 34, 1)"><rect x="162.2" y="-302.5" width="312.0" height="454.5" rx="8" ry="8" fill="rgba(0, 0, 0, 0)" stroke="rgba(0, 0, 0, 0)" stroke-width="0"></rect><rect x="1162.0" y="-34.0" width="861.1" height="793.9" rx="8" ry="8" fill="rgba(0, 0, 0, 0)" stroke="rgba(0, 0, 0, 0)" stroke-width="0"></rect><rect x="1421.4" y="198.4" width="571.6" height="305.2" rx="8" ry="8" fill="rgba(0, 0, 0, 0)" stroke="rgba(0, 0, 0, 0)" stroke-width="0"></rect><rect x="1192.6" y="544.0" width="636.8" height="186.0" rx="8" ry="8" fill="rgba(0, 0, 0, 0)" stroke="rgba(0, 0, 0, 0)" stroke-width="0"></rect><rect x="803.2" y="893.2" width="1341.7" height="616.4" rx="8" ry="8" fill="rgba(0, 0, 0, 0)" stroke="rgba(0, 0, 0, 0)" stroke-width="0"></rect><rect x="1062.7" y="973.2" width="1052.2" height="506.4" rx="8" ry="8" fill="rgba(0, 0, 0, 0)" stroke="rgba(0, 0, 0, 0)" stroke-width="0"></rect><rect x="1092.7" y="1053.2" width="992.2" height="186.0" rx="8" ry="8" fill="rgba(0, 0, 0, 0)" stroke="rgba(0, 0, 0, 0)" stroke-width="0"></rect><rect x="1193.6" y="1263.6" width="720.7" height="186.0" rx="8" ry="8" fill="rgba(0, 0, 0, 0)" stroke="rgba(0, 0, 0, 0)" stroke-width="0"></rect><rect x="382.2" y="-698.5" width="92.0" height="76.0" rx="8" ry="8" fill="rgba(0, 0, 0, 0)" stroke="rgba(229, 231, 235, 1)" stroke-width="2"></rect><text x="396.2" y="-646.5" fill="rgba(255, 255, 255, 1)" font-size="32" text-anchor="start" font-family="MiSans">进程</text><rect x="382.2" y="-516.3" width="92.0" height="76.0" rx="8" ry="8" fill="rgba(0, 0, 0, 0)" stroke="rgba(229, 231, 235, 1)" stroke-width="2"></rect><text x="396.2" y="-464.3" fill="rgba(255, 255, 255, 1)" font-size="32" text-anchor="start" font-family="MiSans">线程</text><rect x="614.8" y="-698.5" width="348.0" height="76.0" rx="8" ry="8" fill="rgba(0, 0, 0, 0)" stroke="rgba(229, 231, 235, 1)" stroke-width="2"></rect><text x="628.8" y="-646.5" fill="rgba(255, 255, 255, 1)" font-size="32" text-anchor="start" font-family="MiSans">应用和对应的内存空间</text><rect x="614.8" y="-516.3" width="476.0" height="76.0" rx="8" ry="8" fill="rgba(0, 0, 0, 0)" stroke="rgba(229, 231, 235, 1)" stroke-width="2"></rect><text x="628.8" y="-464.3" fill="rgba(255, 255, 255, 1)" font-size="32" text-anchor="start" font-family="MiSans">进程中可以有多个线程进行工作</text><rect x="192.2" y="-222.5" width="252.0" height="76.0" rx="8" ry="8" fill="rgba(0, 0, 0, 0)" stroke="rgba(229, 231, 235, 1)" stroke-width="2"></rect><text x="206.2" y="-170.5" fill="rgba(255, 255, 255, 1)" font-size="32" text-anchor="start" font-family="MiSans">浏览器的主进程</text><rect x="192.2" y="-94.7" width="156.0" height="76.0" rx="8" ry="8" fill="rgba(0, 0, 0, 0)" stroke="rgba(229, 231, 235, 1)" stroke-width="2"></rect><text x="206.2" y="-42.7" fill="rgba(255, 255, 255, 1)" font-size="32" text-anchor="start" font-family="MiSans">网络进程</text><rect x="192.2" y="46.0" width="156.0" height="76.0" rx="8" ry="8" fill="rgba(0, 0, 0, 0)" stroke="rgba(229, 231, 235, 1)" stroke-width="2"></rect><text x="206.2" y="98.0" fill="rgba(255, 255, 255, 1)" font-size="32" text-anchor="start" font-family="MiSans">渲染进程</text><rect x="519.5" y="84.0" width="321.9" height="76.0" rx="8" ry="8" fill="rgba(0, 0, 0, 0)" stroke="rgba(229, 231, 235, 1)" stroke-width="2"></rect><text x="533.5" y="136.0" fill="rgba(255, 255, 255, 1)" font-size="32" text-anchor="start" font-family="MiSans">负责执行html/css/js</text><rect x="552.9" y="313.1" width="156.0" height="76.0" rx="8" ry="8" fill="rgba(0, 0, 0, 0)" stroke="rgba(229, 231, 235, 1)" stroke-width="2"></rect><text x="566.9" y="365.1" fill="rgba(255, 255, 255, 1)" font-size="32" text-anchor="start" font-family="MiSans">重要原理</text><rect x="1451.4" y="278.4" width="348.0" height="76.0" rx="8" ry="8" fill="rgba(22, 163, 74, 1)" stroke="rgba(229, 231, 235, 1)" stroke-width="2"></rect><text x="1465.4" y="330.4" fill="rgba(255, 255, 255, 1)" font-size="32" text-anchor="start" font-family="MiSans">微队列（最高优先级）</text><rect x="1451.4" y="397.7" width="156.0" height="76.0" rx="8" ry="8" fill="rgba(0, 0, 0, 0)" stroke="rgba(229, 231, 235, 1)" stroke-width="2"></rect><text x="1465.4" y="449.7" fill="rgba(255, 255, 255, 1)" font-size="32" text-anchor="start" font-family="MiSans">交互队列</text><rect x="1643.4" y="397.7" width="156.0" height="76.0" rx="8" ry="8" fill="rgba(0, 0, 0, 0)" stroke="rgba(229, 231, 235, 1)" stroke-width="2"></rect><text x="1657.4" y="449.7" fill="rgba(255, 255, 255, 1)" font-size="32" text-anchor="start" font-family="MiSans">延时队列</text><rect x="538.5" y="-34.0" width="284.0" height="76.0" rx="8" ry="8" fill="rgba(0, 0, 0, 0)" stroke="rgba(229, 231, 235, 1)" stroke-width="2"></rect><text x="552.5" y="18.0" fill="rgba(255, 255, 255, 1)" font-size="32" text-anchor="start" font-family="MiSans">每个页签一个进程</text><rect x="1122.7" y="1133.2" width="164.1" height="76.0" rx="8" ry="8" fill="rgba(0, 0, 0, 0)" stroke="rgba(229, 231, 235, 1)" stroke-width="2"></rect><text x="1136.7" y="1185.2" fill="rgba(255, 255, 255, 1)" font-size="32" text-anchor="start" font-family="MiSans">解析Html</text><rect x="1357.3" y="1133.2" width="156.0" height="76.0" rx="8" ry="8" fill="rgba(0, 0, 0, 0)" stroke="rgba(229, 231, 235, 1)" stroke-width="2"></rect><text x="1371.3" y="1185.2" fill="rgba(255, 255, 255, 1)" font-size="32" text-anchor="start" font-family="MiSans">样式计算</text><rect x="1604.5" y="1133.2" width="92.0" height="76.0" rx="8" ry="8" fill="rgba(0, 0, 0, 0)" stroke="rgba(229, 231, 235, 1)" stroke-width="2"></rect><text x="1618.5" y="1185.2" fill="rgba(255, 255, 255, 1)" font-size="32" text-anchor="start" font-family="MiSans">布局</text><rect x="1786.6" y="1133.2" width="92.0" height="76.0" rx="8" ry="8" fill="rgba(0, 0, 0, 0)" stroke="rgba(229, 231, 235, 1)" stroke-width="2"></rect><text x="1800.6" y="1185.2" fill="rgba(255, 255, 255, 1)" font-size="32" text-anchor="start" font-family="MiSans">分层</text><rect x="1962.9" y="1133.2" width="92.0" height="76.0" rx="8" ry="8" fill="rgba(0, 0, 0, 0)" stroke="rgba(229, 231, 235, 1)" stroke-width="2"></rect><text x="1976.9" y="1185.2" fill="rgba(255, 255, 255, 1)" font-size="32" text-anchor="start" font-family="MiSans">绘制</text><rect x="1792.3" y="1343.6" width="92.0" height="76.0" rx="8" ry="8" fill="rgba(0, 0, 0, 0)" stroke="rgba(229, 231, 235, 1)" stroke-width="2"></rect><text x="1806.3" y="1395.6" fill="rgba(255, 255, 255, 1)" font-size="32" text-anchor="start" font-family="MiSans">分块</text><rect x="1610.2" y="1343.6" width="92.0" height="76.0" rx="8" ry="8" fill="rgba(0, 0, 0, 0)" stroke="rgba(229, 231, 235, 1)" stroke-width="2"></rect><text x="1624.2" y="1395.6" fill="rgba(255, 255, 255, 1)" font-size="32" text-anchor="start" font-family="MiSans">分块</text><rect x="1379.0" y="1343.6" width="124.0" height="76.0" rx="8" ry="8" fill="rgba(0, 0, 0, 0)" stroke="rgba(229, 231, 235, 1)" stroke-width="2"></rect><text x="1393.0" y="1395.6" fill="rgba(255, 255, 255, 1)" font-size="32" text-anchor="start" font-family="MiSans">光栅化</text><rect x="1223.6" y="1343.6" width="60.0" height="76.0" rx="8" ry="8" fill="rgba(0, 0, 0, 0)" stroke="rgba(229, 231, 235, 1)" stroke-width="2"></rect><text x="1237.6" y="1395.6" fill="rgba(255, 255, 255, 1)" font-size="32" text-anchor="start" font-family="MiSans">画</text><rect x="833.2" y="1133.2" width="191.5" height="76.0" rx="8" ry="8" fill="rgba(0, 0, 0, 0)" stroke="rgba(229, 231, 235, 1)" stroke-width="2"></rect><text x="847.2" y="1185.2" fill="rgba(255, 255, 255, 1)" font-size="32" text-anchor="start" font-family="MiSans">html字符串</text><rect x="851.0" y="1343.6" width="156.0" height="76.0" rx="8" ry="8" fill="rgba(0, 0, 0, 0)" stroke="rgba(229, 231, 235, 1)" stroke-width="2"></rect><text x="865.0" y="1395.6" fill="rgba(255, 255, 255, 1)" font-size="32" text-anchor="start" font-family="MiSans">屏幕展示</text><rect x="1193.6" y="46.0" width="799.4" height="76.0" rx="8" ry="8" fill="rgba(0, 0, 0, 0)" stroke="rgba(229, 231, 235, 1)" stroke-width="2"></rect><text x="1207.6" y="98.0" fill="rgba(255, 255, 255, 1)" font-size="32" text-anchor="start" font-family="MiSans">主线程不断循环：执行代码、获取任务、执行代码...</text><rect x="1846.3" y="395.8" width="116.7" height="76.0" rx="8" ry="8" fill="rgba(0, 0, 0, 0)" stroke="rgba(229, 231, 235, 1)" stroke-width="2"></rect><text x="1860.3" y="447.8" fill="rgba(255, 255, 255, 1)" font-size="32" text-anchor="start" font-family="MiSans">其他...</text><rect x="1222.6" y="624.0" width="156.0" height="76.0" rx="8" ry="8" fill="rgba(0, 0, 0, 0)" stroke="rgba(229, 231, 235, 1)" stroke-width="2"></rect><text x="1236.6" y="676.0" fill="rgba(255, 255, 255, 1)" font-size="32" text-anchor="start" font-family="MiSans">开始计时</text><rect x="1192.0" y="169.4" width="203.6" height="76.0" rx="8" ry="8" fill="rgba(0, 0, 0, 0)" stroke="rgba(229, 231, 235, 1)" stroke-width="2"></rect><text x="1206.0" y="221.4" fill="rgba(255, 255, 255, 1)" font-size="32" text-anchor="start" font-family="MiSans">setTimeOut</text><rect x="1643.4" y="624.0" width="156.0" height="76.0" rx="8" ry="8" fill="rgba(0, 0, 0, 0)" stroke="rgba(229, 231, 235, 1)" stroke-width="2"></rect><text x="1657.4" y="676.0" fill="rgba(255, 255, 255, 1)" font-size="32" text-anchor="start" font-family="MiSans">计时结束</text><line x1="428.2" y1="-622.5" x2="428.2" y2="-516.3" stroke="rgba(229, 231, 235, 1)" stroke-width="2"></line><polygon points="428.2,-516.3 432.0,-530.8 428.2,-523.8 424.3,-530.8" fill="rgba(229, 231, 235, 1)" stroke="rgba(229, 231, 235, 1)"></polygon><line x1="474.2" y1="-660.5" x2="614.8" y2="-660.5" stroke="rgba(229, 231, 235, 1)" stroke-width="2"></line><polygon points="614.8,-660.5 600.3,-664.4 607.3,-660.5 600.3,-656.6" fill="rgba(229, 231, 235, 1)" stroke="rgba(229, 231, 235, 1)"></polygon><line x1="474.2" y1="-478.3" x2="614.8" y2="-478.3" stroke="rgba(229, 231, 235, 1)" stroke-width="2"></line><polygon points="614.8,-478.3 600.3,-482.2 607.3,-478.3 600.3,-474.4" fill="rgba(229, 231, 235, 1)" stroke="rgba(229, 231, 235, 1)"></polygon><line x1="348.2" y1="91.3" x2="519.5" y2="107.1" stroke="rgba(229, 231, 235, 1)" stroke-width="2"></line><polygon points="519.5,107.1 505.4,101.9 512.0,106.4 504.7,109.6" fill="rgba(229, 231, 235, 1)" stroke="rgba(229, 231, 235, 1)"></polygon><line x1="321.5" y1="122.0" x2="579.6" y2="313.1" stroke="rgba(229, 231, 235, 1)" stroke-width="2"></line><polygon points="579.6,313.1 570.2,301.3 573.5,308.6 565.6,307.6" fill="rgba(229, 231, 235, 1)" stroke="rgba(229, 231, 235, 1)"></polygon><line x1="348.2" y1="68.8" x2="538.5" y2="31.7" stroke="rgba(229, 231, 235, 1)" stroke-width="2"></line><polygon points="538.5,31.7 523.5,30.7 531.1,33.2 525.0,38.3" fill="rgba(229, 231, 235, 1)" stroke="rgba(229, 231, 235, 1)"></polygon><line x1="1286.9" y1="1171.2" x2="1357.3" y2="1171.2" stroke="rgba(229, 231, 235, 1)" stroke-width="2"></line><polygon points="1357.3,1171.2 1342.8,1167.3 1349.8,1171.2 1342.8,1175.1" fill="rgba(229, 231, 235, 1)" stroke="rgba(229, 231, 235, 1)"></polygon><line x1="1513.3" y1="1171.2" x2="1604.5" y2="1171.2" stroke="rgba(229, 231, 235, 1)" stroke-width="2"></line><polygon points="1604.5,1171.2 1590.0,1167.3 1597.0,1171.2 1590.0,1175.1" fill="rgba(229, 231, 235, 1)" stroke="rgba(229, 231, 235, 1)"></polygon><line x1="1696.5" y1="1171.2" x2="1786.6" y2="1171.2" stroke="rgba(229, 231, 235, 1)" stroke-width="2"></line><polygon points="1786.6,1171.2 1772.1,1167.3 1779.1,1171.2 1772.1,1175.1" fill="rgba(229, 231, 235, 1)" stroke="rgba(229, 231, 235, 1)"></polygon><line x1="1878.6" y1="1171.2" x2="1962.9" y2="1171.2" stroke="rgba(229, 231, 235, 1)" stroke-width="2"></line><polygon points="1962.9,1171.2 1948.5,1167.3 1955.4,1171.2 1948.5,1175.1" fill="rgba(229, 231, 235, 1)" stroke="rgba(229, 231, 235, 1)"></polygon><line x1="1978.1" y1="1209.2" x2="1869.1" y2="1343.6" stroke="rgba(229, 231, 235, 1)" stroke-width="2"></line><polygon points="1869.1,1343.6 1881.2,1334.8 1873.8,1337.8 1875.2,1329.9" fill="rgba(229, 231, 235, 1)" stroke="rgba(229, 231, 235, 1)"></polygon><line x1="1792.3" y1="1381.6" x2="1702.2" y2="1381.6" stroke="rgba(229, 231, 235, 1)" stroke-width="2"></line><polygon points="1702.2,1381.6 1716.7,1385.5 1709.7,1381.6 1716.7,1377.8" fill="rgba(229, 231, 235, 1)" stroke="rgba(229, 231, 235, 1)"></polygon><line x1="1610.2" y1="1381.6" x2="1503.0" y2="1381.6" stroke="rgba(229, 231, 235, 1)" stroke-width="2"></line><polygon points="1503.0,1381.6 1517.5,1385.5 1510.5,1381.6 1517.5,1377.8" fill="rgba(229, 231, 235, 1)" stroke="rgba(229, 231, 235, 1)"></polygon><line x1="1379.0" y1="1381.6" x2="1283.6" y2="1381.6" stroke="rgba(229, 231, 235, 1)" stroke-width="2"></line><polygon points="1283.6,1381.6 1298.1,1385.5 1291.1,1381.6 1298.1,1377.8" fill="rgba(229, 231, 235, 1)" stroke="rgba(229, 231, 235, 1)"></polygon><line x1="1024.7" y1="1171.2" x2="1122.7" y2="1171.2" stroke="rgba(229, 231, 235, 1)" stroke-width="2"></line><polygon points="1122.7,1171.2 1108.3,1167.3 1115.2,1171.2 1108.3,1175.1" fill="rgba(229, 231, 235, 1)" stroke="rgba(229, 231, 235, 1)"></polygon><line x1="1223.6" y1="1381.6" x2="1007.0" y2="1381.6" stroke="rgba(229, 231, 235, 1)" stroke-width="2"></line><polygon points="1007.0,1381.6 1021.5,1385.5 1014.5,1381.6 1021.5,1377.8" fill="rgba(229, 231, 235, 1)" stroke="rgba(229, 231, 235, 1)"></polygon><line x1="1609.5" y1="122.0" x2="1617.6" y2="141.0" stroke="rgba(229, 231, 235, 1)" stroke-width="2"></line><line x1="1642.1" y1="198.4" x2="1634.0" y2="179.4" stroke="rgba(229, 231, 235, 1)" stroke-width="2"></line><text x="1625.8169299002243" y="174.2380335607632" fill="rgba(229, 231, 235, 1)" font-size="32" text-anchor="middle" font-family="MiSans">pull</text><polygon points="1642.1,198.4 1640.0,183.6 1639.2,191.5 1632.9,186.6" fill="rgba(229, 231, 235, 1)" stroke="rgba(229, 231, 235, 1)"></polygon><line x1="1501.0" y1="122.0" x2="1386.0" y2="169.4" stroke="rgba(229, 231, 235, 1)" stroke-width="2"></line><polygon points="1386.0,169.4 1400.9,167.5 1393.0,166.5 1398.0,160.3" fill="rgba(229, 231, 235, 1)" stroke="rgba(229, 231, 235, 1)"></polygon><line x1="1294.3" y1="245.4" x2="1300.0" y2="624.0" stroke="rgba(229, 231, 235, 1)" stroke-width="2"></line><polygon points="1300.0,624.0 1303.7,609.4 1299.9,616.5 1295.9,609.6" fill="rgba(229, 231, 235, 1)" stroke="rgba(229, 231, 235, 1)"></polygon><line x1="1378.6" y1="662.0" x2="1643.4" y2="662.0" stroke="rgba(229, 231, 235, 1)" stroke-width="2"></line><polygon points="1643.4,662.0 1628.9,658.1 1635.9,662.0 1628.9,665.9" fill="rgba(229, 231, 235, 1)" stroke="rgba(229, 231, 235, 1)"></polygon><line x1="1721.4" y1="624.0" x2="1721.4" y2="568.0" stroke="rgba(229, 231, 235, 1)" stroke-width="2"></line><line x1="1721.4" y1="473.7" x2="1721.4" y2="529.6" stroke="rgba(229, 231, 235, 1)" stroke-width="2"></line><text x="1721.3825238721074" y="562.8274311312355" fill="rgba(229, 231, 235, 1)" font-size="32" text-anchor="middle" font-family="MiSans">push</text><polygon points="1721.4,473.7 1717.5,488.2 1721.4,481.2 1725.3,488.2" fill="rgba(229, 231, 235, 1)" stroke="rgba(229, 231, 235, 1)"></polygon><line x1="668.6" y1="389.1" x2="1168.5" y2="893.2" stroke="rgba(229, 231, 235, 1)" stroke-width="2"></line><polygon points="1168.5,893.2 1161.0,880.2 1163.2,887.9 1155.5,885.7" fill="rgba(229, 231, 235, 1)" stroke="rgba(229, 231, 235, 1)"></polygon><line x1="708.9" y1="352.0" x2="1162.0" y2="357.7" stroke="rgba(229, 231, 235, 1)" stroke-width="2"></line><polygon points="1162.0,357.7 1147.5,353.6 1154.5,357.6 1147.4,361.4" fill="rgba(229, 231, 235, 1)" stroke="rgba(229, 231, 235, 1)"></polygon><rect x="1421.4" y="198.4" width="571.6" height="305.2" rx="8" ry="8" fill="rgba(0, 0, 0, 0)" stroke="rgba(229, 231, 235, 1)" stroke-width="2"></rect><text x="1435.4" y="228.4" fill="rgba(229, 231, 235, 1)" font-size="32" text-anchor="start" font-family="MiSans">消息队列</text><rect x="1062.7" y="973.2" width="1052.2" height="506.4" rx="8" ry="8" fill="rgba(0, 0, 0, 0)" stroke="rgba(229, 231, 235, 1)" stroke-width="2"></rect><text x="1076.7" y="1003.2" fill="rgba(229, 231, 235, 1)" font-size="32" text-anchor="start" font-family="MiSans">渲染过程</text><rect x="1193.6" y="1263.6" width="720.7" height="186.0" rx="8" ry="8" fill="rgba(0, 0, 0, 0)" stroke="rgba(229, 231, 235, 1)" stroke-width="2"></rect><text x="1207.6" y="1293.6" fill="rgba(229, 231, 235, 1)" font-size="32" text-anchor="start" font-family="MiSans">其他进程中渲染，涉及GPU加速</text><rect x="1092.7" y="1053.2" width="992.2" height="186.0" rx="8" ry="8" fill="rgba(0, 0, 0, 0)" stroke="rgba(229, 231, 235, 1)" stroke-width="2"></rect><text x="1106.7" y="1083.2" fill="rgba(229, 231, 235, 1)" font-size="32" text-anchor="start" font-family="MiSans">渲染主线程中进行</text><rect x="1192.6" y="544.0" width="636.8" height="186.0" rx="8" ry="8" fill="rgba(0, 0, 0, 0)" stroke="rgba(229, 231, 235, 1)" stroke-width="2"></rect><text x="1206.6" y="574.0" fill="rgba(229, 231, 235, 1)" font-size="32" text-anchor="start" font-family="MiSans">延时进程</text><rect x="803.2" y="893.2" width="1341.7" height="616.4" rx="8" ry="8" fill="rgba(0, 0, 0, 0)" stroke="rgba(229, 231, 235, 1)" stroke-width="2"></rect><text x="817.2" y="923.2" fill="rgba(229, 231, 235, 1)" font-size="32" text-anchor="start" font-family="MiSans">界面渲染</text><rect x="1162.0" y="-34.0" width="861.1" height="793.9" rx="8" ry="8" fill="rgba(0, 0, 0, 0)" stroke="rgba(229, 231, 235, 1)" stroke-width="2"></rect><text x="1176.0" y="-4.0" fill="rgba(229, 231, 235, 1)" font-size="32" text-anchor="start" font-family="MiSans">事件循环</text><rect x="162.2" y="-302.5" width="312.0" height="454.5" rx="8" ry="8" fill="rgba(0, 0, 0, 0)" stroke="rgba(229, 231, 235, 1)" stroke-width="2"></rect><text x="176.2" y="-272.5" fill="rgba(229, 231, 235, 1)" font-size="32" text-anchor="start" font-family="MiSans">浏览器的进程模型</text></svg>